# xmcd CD database file
# Copyright (C) 1993-1998 Ti Kan
# 
# Track frame offsets:
#     150
#     13147
#     24655
#     38067
#     51752
#     64682
#     75435
#     87377
#     100187
#     112052
#     125705
#     137782
#     150897
#     164445
#     175902
#     188040
#     199450
#     210800
# 
# Disc length: 2970 seconds
# 
# Revision: 1
# Processed by: cddbd v1.4b41PL1 Copyright (c) Steve Scherf et al.
# Submitted via: DiscPlay 4.0.4
# 
DISCID=ee0b9812
DTITLE=Robert Johnson - The Blues CD-1
DYEAR=1900
DGENRE=
TTITLE0=Kindhearted Woman Blues Take1
TTITLE1=Kindhearted Woman Blues Take2
TTITLE2=I Believe I'll Dust My Broom
TTITLE3=Sweet Home Chicago
TTITLE4=Ramblin On My Mind Take 1
TTITLE5=Ramblin On My Mind Take 2
TTITLE6=When You Got a Good Friend
TTITLE7=Come On In My Kitchen Take 1
TTITLE8=Come On In My Kitchen Take 2
TTITLE9=Terraplane Blues
TTITLE10=Phono graph Blues
TTITLE11=32/20 Blues
TTITLE12=They're Red Hot
TTITLE13=Dead Shrimp Blues
TTITLE14=Crossroad Blues Take 1
TTITLE15=Crossroad Blues Take 2
TTITLE16=Walkin Blues
TTITLE17=Last Fair Deal Gone Down
EXTD=
EXTT0=
EXTT1=
EXTT2=
EXTT3=
EXTT4=
EXTT5=
EXTT6=
EXTT7=
EXTT8=
EXTT9=
EXTT10=
EXTT11=
EXTT12=
EXTT13=
EXTT14=
EXTT15=
EXTT16=
EXTT17=
PLAYORDER=
